<svg xmlns="http://www.w3.org/2000/svg" width="512" height="512" style="" viewBox="0 0 512 512" data-svgdocument="" id="_Vd0nRp6YrCq6hab9A7iiF" class="fl-svgdocument" x="0" y="0" xmlns:xlink="http://www.w3.org/1999/xlink"><defs id="_3cDCQR6Mcb1qIGU2x-RFe" transform="matrix(0.8124999880576723, 0, 0, 0.8124999880576723, 47.999989928398826, 47.999999482545405)"/><g id="_XQRBRtj-KMvHTzex7XXD0" transform="matrix(0.8124999880576723, 0, 0, 0.8124999880576723, 47.999989928398826, 47.999999482545405)"><path id="_BjpzTKOjiG6Q7lMWCF1H2" d="M80.8,77.6c0-0.3-0.2-0.5-0.4-0.6c-0.2-0.1-0.5-0.1-0.7,0.1c0,0-4.7,4.2-16.1-1.4c-12.4-6.1-17-1.4-18.6,0.1   c-1.3,1.3-3.4,1-3.4,0.9c-5.5-0.6-7.9-3.8-7.9-5.4c0-1.5,0.4-2.9,4.7-3.5c4.6-0.6,14.1-3.3,16.5-9.3c0.1-0.3,0.3-0.7,0.4-1   c0.7,0.8,1.8,1.4,3,1.4l1,0c0,0,0,0,0,0c0,0,0.1,0,0.1,0c0,0.2,0,0.3,0,0.4c0,0.5,0.2,1,0.7,1.4c0.7,0.6,1.8,0.9,2.8,0.8   c1.2-0.1,2.2-0.1,4.2,0.1c0.2,0,0.4,0.1,0.6,0.1c1.9,0.3,3.1,0.5,3.4-0.4c0.3-0.7-0.5-1.4-2-2.3C67.3,58,66,58,65,57.9   c-0.5,0-0.9,0-1.2-0.3c0.2,0,0.3,0,0.5,0c1.4,0.1,2.3,0.2,2.8-0.2c0.3-0.2,1.7-0.2,2.2,0.5c0.5,0.7,0.9,0.8,1.5,0.9   c0.4,0,0.8,0.1,1.7,0.4c0.1,0,0.2,0,0.2,0c0.2,0,0.4-0.1,0.6-0.3c0.2-0.3,0.1-0.6-0.1-0.8l-1.5-1.5c-0.1-0.1-0.2-0.3-0.3-0.5   c-0.4-0.7-1-1.8-2.8-2.1L68.1,54c-1-0.2-2.4-0.4-2.4-0.7l0-0.2c-0.1-1-0.2-1.5-1.5-3.1c-1.3-1.5-2.2-2.7-2.3-2.9   c-0.2-0.9-0.4-1.9-0.8-3.1c0,0,0-0.1,0-0.1c0.1-0.1,0.1-0.1,0.1-0.2l0.8-2.1c0.1-0.2,0.2-0.5,0.4-0.9c0.7-1.6,1.9-3.9,0.5-5.5   c-0.6-0.7-1-1.7-1.3-2.9c0.1-0.5,0.2-0.9,0.3-1.3c0.2-0.8,0.3-1.3-0.1-2c-0.1-0.2-0.3-0.7-0.3-1.6c0-0.2,0.1-0.4,0.1-0.6   c0.2-0.9,0.3-1.6,0.2-2.3c-0.2-3-0.7-3.8-1.2-4.6c-0.3-0.4-0.5-0.6-0.6-1.6c0-0.4-0.1-2.8-0.6-3.6c-0.7-1.1-0.8-1.8-1-3.1   c-0.1-0.5-0.1-1-0.3-1.7c-0.6-3-2.8-6.8-7.3-7.7c-3.7-0.8-6.8,0.2-8,2.5c-0.4,0.7-0.3,1.5,0.1,2.1c-0.1,0-0.2,0.1-0.2,0.2   c-1.1,1.2-1.3,2.8-1.5,4.4l-0.1,0.4c-0.2,1.1,0,2.3,0.3,3.4c0,0.1-0.1,0.2-0.1,0.2c-0.1,0.8-0.2,3.6,0.4,4.5c0.3,0.5,0,1.3,0,1.3   c0,0.1-0.1,0.2,0,0.3c-1.4,0.4-3,0.9-4.8,1.5c-0.9,0.3-1.8,1.1-2.4,2.1c-0.5,0.8-0.8,1.7-0.8,2.8c-0.1,0.8-0.2,2.1-0.6,4.3   c-0.2,1-1.7,10,0,11.9c0.4,0.4,1,0.9,1.8,1.4c0,0,0,0,0,0c-0.2,0.2-3.8,3.9-4.7,4.9c-5.9,6.9-8.3,10.5-8.4,10.7   c-3,5.4-3.4,10.1-1.2,14c2.8,5.1,9.2,7.1,12.8,7.3c5.2,0.2,8.7,2,9.5,2.4c4.6,11.1,15.9,9.8,20.2,9.3c0.6-0.1,1.1-0.1,1.3-0.1   c1.1,0.1,4.3,2.3,6.1,3.6c0.1,0.1,0.3,0.1,0.4,0.1c0.1,0,0.2,0,0.3-0.1c0.2-0.1,0.4-0.4,0.3-0.7c0-0.2-0.9-6.1-6.3-7.9   c-2.8-0.9-5.7-2.6-7.6-3.8c2.2-0.1,5.5-0.6,9.8-1.4c1.5-0.3,2.8-0.6,4-0.9c0,0,0.1,0,0.1,0c0.1,0,0.3-0.1,0.4-0.1   C80.3,80.8,80.8,78.2,80.8,77.6z M58.2,57.6c-1.4,0-2.6-1.3-2.6-2.1c0-0.1,0-0.2,0-0.2c0.1-4.2-2.6-7.6-3-8.1   c-0.6-1.2-0.7-4.1-0.4-5.4c0.3-1,1.5-2.9,1.9-3.6c0.7,2,1.8,5.2,1.8,6.5c0,2.3,1.6,8.1,3.2,12.1c0,0.2,0.1,0.5,0.2,0.9L58.2,57.6z    M63.1,50.9c1.1,1.4,1.1,1.6,1.2,2.3l0,0.2c0.1,1.3,1.6,1.6,3.6,1.9l0.6,0.1c1.2,0.2,1.5,0.8,1.8,1.4c0.1,0.2,0.2,0.4,0.4,0.6   c-0.1,0-0.2-0.1-0.3-0.3c-0.9-1.2-3.1-1.3-3.9-0.8c-0.3,0.1-1.4,0-2,0c-0.5,0-0.9-0.1-1.2-0.1c0-0.2-0.1-0.3-0.1-0.5   c-0.5-1.9-0.6-3.1-0.7-4.5c0-0.5-0.1-1-0.1-1.5C62.5,50.1,62.8,50.5,63.1,50.9z M61.3,40.2c-0.2,0.4-0.3,0.7-0.4,1   c0-0.5-0.1-1-0.2-1.6l0.1,0c0,0,0.5-1.3,0.6-1.9c0.1-0.2,0.1-1.1,0.2-2c0.1,0.1,0.2,0.3,0.3,0.4C62.8,37,61.9,38.9,61.3,40.2z    M44,5.4c0.9-1.8,3.5-2.5,6.6-1.8c3.9,0.8,5.8,4.1,6.3,6.7c0.1,0.7,0.2,1.2,0.3,1.7c0.2,1.3,0.3,2.2,1.2,3.6c0.2,0.3,0.4,2,0.4,2.9   c0,0,0,0.1,0,0.1c0.2,1.3,0.6,1.7,0.9,2.1c0.4,0.5,0.7,1,1,3.9c0,0.5,0,1.1-0.2,1.9c0,0.2-0.1,0.4-0.1,0.7c0,0,0,0.1,0,0.1   c0,0.7,0.1,1.7,0.5,2.4c0.1,0.2,0.1,0.3-0.1,1c-0.1,0.4-0.2,0.8-0.3,1.5c0,0,0,0.1,0,0.2c0,0,0,0.1,0,0.1c0,0.1,0,0.2,0.1,0.3   c0,0.6,0,2.4-0.1,3.6c-0.5-3.8-1.2-8-2.1-9.8c0.6-0.5,1.3-1.6,1-3c-0.2-0.8-0.6-1.3-0.9-1.7c-0.3-0.4-0.4-0.5-0.2-1.1   c0.1-0.1,0.1-0.3,0.2-0.4c0.2-0.3,0.1-0.7-0.1-0.9c-0.3-0.2-0.7-0.1-0.9,0.1c-0.2,0.2-0.3,0.5-0.4,0.7c-0.5,1.3,0,1.9,0.4,2.4   c0.2,0.3,0.5,0.6,0.6,1.1c0.2,0.7-0.2,1.3-0.5,1.6c-1.9-2.2-4.8-3.9-5.2-4.1c-0.1-0.1-0.3-0.1-0.4-0.2c0.1,0,0.1-0.1,0.2-0.1   c2-1,3.2-3.3,2.9-5.7c-0.5-3.2-2.3-7-6.1-7.4c-2.2-0.2-3.7-1-4.6-1.6C43.9,6.1,43.8,5.7,44,5.4z M42.9,19.3   c-0.1-0.2-0.2-0.7-0.2-1.4c0.6,0.9,1.2,1.7,1.7,2.1c0,0,0,0.1,0,0.3c0,0.1,0,0.2-0.1,0.2c-0.1,0.2-0.2,0.3-0.4,0.4   c-0.2,0.1-0.5,0.1-0.8,0.2C43.3,20.7,43.3,20,42.9,19.3z M34.1,43.4c-0.7-0.8-0.6-5.7,0.3-10.8c0.4-2.3,0.6-3.7,0.6-4.5   c0.1-0.9,0.3-1.6,0.7-2.3c0.5-0.8,1.1-1.3,1.7-1.5c2.9-1,5.6-1.8,7-2.2c0.6-0.2,1.1-0.7,1.3-1.3c0-0.1,0.1-0.2,0.1-0.3   c0.2-1.1-0.4-1.5-0.5-1.6c-1-0.7-3.2-3.9-2.8-6.9l0.1-0.4c0.2-1.5,0.4-2.8,1.2-3.7c0.1-0.1,0.1-0.2,0.1-0.3   c1.1,0.7,2.7,1.4,4.8,1.6c3,0.3,4.5,3.6,4.9,6.3c0.3,1.8-0.6,3.5-2.2,4.3c-0.1,0.1-0.2,0.1-0.3,0.1c-0.1,0-0.1,0.1-0.2,0.1   c-0.4,0.3-0.8,0.9-0.6,1.6c0.1,0.1,0.1,0.3,0.3,0.3c0,0,0.4,0.3,1,0.6c0.4,0.2,3.5,2.1,5.2,4.3c0,0,0,0,0,0c0,0,0,0,0,0   c1.3,1.6,2.5,11.3,3,17.4c0,0,0,0.1,0,0.1c1,3.5,1.2,5.3,1.3,7.1c0.1,1.4,0.2,2.7,0.7,4.7c0.7,2.8,1.7,3.1,3.2,3.1   c0.8,0,1.9,0.1,3.3,1c0.3,0.2,0.5,0.3,0.7,0.5c-0.4,0-0.9-0.1-1.2-0.2c-0.2,0-0.4-0.1-0.6-0.1c-2.1-0.3-3.3-0.3-4.6-0.1   c-0.6,0.1-1.3-0.1-1.7-0.5c-0.1-0.1-0.2-0.3-0.2-0.4c0-1.1-0.4-2.9-0.4-3c0,0,0-0.1,0-0.1c-1.6-4.3-3.1-9.8-3.1-11.7   c0-1.9-1.6-6.3-2.1-7.7c1-1,1.9-2.6,1.3-6.6c-0.1-0.4-0.4-0.6-0.8-0.5c-0.4,0.1-0.6,0.4-0.5,0.8c0.6,4-0.3,5-1.1,5.7   c-1,0.6-3-0.3-3.6-0.7c-0.3-0.2-0.7-0.1-0.9,0.2c-0.2,0.3-0.1,0.7,0.2,0.9c0.2,0.1,1.7,0.9,3.1,1.1c-0.7,1.2-1.6,2.7-1.9,3.7   c-0.4,1.4-0.3,4.1,0.2,5.8c-1.6,0.6-3.8,1.1-4.9,0.9c-0.9-0.9-3.4-2.8-5.4-4.3c-0.6-0.5-1.2-1-1.7-1.3c0.1,0,0.1-0.1,0.2-0.2   c0.7-0.8,0.8-3.1,0.8-3.8c0-0.2,0-0.6-0.1-1.2c0-0.2-0.1-0.4-0.1-0.6c0.6,0.3,1.4,0.6,2.2,0.5c2.8-0.1,4.6-1.3,5.1-3.5   c0.1-0.4-0.1-0.7-0.5-0.8c-0.4-0.1-0.7,0.1-0.8,0.5c-0.5,2-2.3,2.4-3.8,2.5c-1,0-2.1-0.6-2.4-0.9c0,0-0.1-0.1-0.1-0.1l1.2-5.4   c0.1-0.4-0.1-0.7-0.5-0.8c-0.4-0.1-0.7,0.1-0.8,0.5l-2.7,11.7c0,0.1-0.2,1,0.5,1.8c0.2,0.2,0.9,0.8,2.8,2.2   c1.9,1.5,4.6,3.5,5.4,4.3c0,0,0,0,0,0c0,0,0,0,0,0c0,0,0,0,0,0c0.4,0.3,1.5,1.3,1.7,2.3c0.1,0.4,0.2,0.9,0.3,1.4   c0.2,1,0.7,2.8,0.6,3.2c-0.2,0.3-0.1,0.7-0.1,1.2c0,0.1,0,0.4,0,0.5c-0.3-0.2-0.6-0.9-0.8-1.3c-0.2-0.3-0.3-0.6-0.5-0.8   c-0.2-0.3-0.5-0.8-0.8-1.3c-0.3-0.5-0.6-1.1-0.9-1.5c-0.4-0.5-0.6-1.9-0.7-2.7c0-0.2-0.2-0.4-0.3-0.5   C41.6,48.3,35.4,44.9,34.1,43.4z M38.7,38.2c0,0.1,0,0.1,0,0.2c0,1.2-0.3,2.7-0.5,3c0,0-0.1,0.1-0.1,0.1c-0.1-0.2-0.1-0.4-0.1-0.4   v0L38.7,38.2z M21.7,74.7c-1.9-3.5-1.5-7.7,1.2-12.6c0,0,2.4-3.7,8.3-10.5c0.8-0.9,4.6-4.8,4.6-4.8c0.1-0.1,0.1-0.1,0.1-0.2   c2.6,1.7,6,3.5,7,4.1c0.1,0.7,0.4,2.2,0.9,2.9c0.3,0.4,0.6,0.9,0.8,1.4c0.3,0.6,0.6,1.1,0.9,1.5c0.1,0.1,0.2,0.4,0.3,0.6   c0.4,0.8,0.9,1.9,2,2.1c0.5,0.1,0.8-0.1,0.9-0.3c0.5-0.4,0.4-1.1,0.4-1.7c0-0.2,0-0.5,0-0.6c0.3-0.6,0.1-1.7-0.5-4.1   c-0.1-0.5-0.2-1-0.3-1.3c-0.1-0.7-0.5-1.3-0.9-1.8c1.6-0.2,3.3-0.7,4.2-1.1c0.9,1.2,3.6,5.3,1.9,9.8c-2,5-10.3,7.8-15.4,8.5   c-4.1,0.5-5.9,2-5.9,4.8c0,2.3,2.9,6.1,9.1,6.7c0.1,0,1.6,0.2,3.1-0.4c0.3,0.6,0.9,1.9,0.7,3.3c-0.2,1.1-0.8,2-1.8,2.8   c-1.1-0.6-4.6-2.3-9.9-2.5C30.3,81.2,24.3,79.3,21.7,74.7z M69.7,95.7c-1.6-1.1-4-2.6-5.3-2.8c-0.3,0-0.8,0-1.6,0.1   c-4,0.5-14.4,1.6-18.7-8.2c0.3-0.2,0.5-0.4,0.7-0.7c0.9,1.3,3.6,4.8,5.8,5.6c1.6,0.6,5.9,2,10.3,2c1.6,0,3.3-0.2,4.8-0.7   C68.1,92.2,69.2,94.3,69.7,95.7z M63.7,90.2c-4.8,0.8-10.7-1-12.5-1.7c-1.8-0.6-4.5-4.1-5.4-5.5c0.2-0.4,0.4-0.7,0.5-1.1l8.6,3.4   C56.4,86.4,59.9,88.7,63.7,90.2z M67.1,82.9c-8.6,1.6-11.1,1.5-11.7,1.3l-8.9-3.5c0-0.4,0-0.9-0.1-1.3c1.5-0.7,4.9-2.2,6.6-2.1   c1.6,0.1,5.7,1.5,11.3,3.8c1.1,0.5,2.9,1,4.4,1.4C68.2,82.6,67.7,82.7,67.1,82.9z M71.4,81.9c-1-0.3-4.8-1.3-6.5-2   c-3.4-1.4-9.3-3.8-11.7-3.9c-2.1-0.2-5.7,1.4-7.1,2.1c-0.2-0.4-0.3-0.7-0.5-1c0.1-0.1,0.2-0.2,0.3-0.3c1.5-1.5,5.5-5.5,17.1,0.1   c6.9,3.4,11.6,3.4,14.3,2.7C76.1,80.3,74.3,81.1,71.4,81.9z" stroke="none" fill="#4c96d7" transform="matrix(2.2588987350463867, 0, 0, 2.2588987350463867, 145.89654541015625, 144.47537231445312)"/><path id="_Gnr9fhw5ld21GeHkBVRiu" d="M46.1,12.5c0-0.1,0-0.1-0.1-0.2c0,0-0.6-0.8-1.4-0.9c-0.8-0.1-1.5,0.5-1.5,0.6c-0.1,0.1-0.1,0.2,0,0.3c0,0,0.5,0.7,1.3,0.9   c0.1,0,0.2,0,0.2,0c0.4,0,0.9-0.2,1.3-0.5C46,12.6,46,12.6,46.1,12.5z" stroke="none" fill="#4c96d7" transform="matrix(2.2588987350463867, 0, 0, 2.2588987350463867, 143.1658935546875, 145.59010314941406)"/><path id="_8oaCTKELXjYRfAL6kid1r" d="M50.4,14.1c0.1,0,0.2,0,0.2,0c0.4,0,0.9-0.2,1.3-0.5c0.1,0,0.1-0.1,0.1-0.2c0-0.1,0-0.1-0.1-0.2c0,0-0.6-0.8-1.4-0.9   c-0.8-0.1-1.5,0.5-1.5,0.6c-0.1,0.1-0.1,0.2,0,0.3C49,13.3,49.5,14,50.4,14.1z" stroke="none" fill="#4c96d7" transform="matrix(2.2588987350463867, 0, 0, 2.2588987350463867, 144.2657928466797, 144.9998321533203)"/></g><path id="_TSRr-JJcIWODk2zm5YFCu" d="M50,95.646c24.854,0,45-20.147,45-45s-20.146-45-45-45s-45,20.147-45,45S25.146,95.646,50,95.646z M50,6.646  c24.262,0,44,19.738,44,44s-19.738,44-44,44s-44-19.738-44-44S25.738,6.646,50,6.646z" stroke="none" fill="#4c96d7" transform="matrix(2.471288138067183, 0, 0, 2.471288138067183, 134.20079676085626, 130.9418861011071)"/><path id="_X0K7_Mm-6854gSCAqBWTf" fill="#4c96d7" transform="matrix(0.2928222281659421, 0.5282053646294369, -0.5282053646294369, 0.2928222281659421, 317.0184515444598, 62.069350334962806)" text="The mermaid" text-anchor="middle" font-size="100" letter-spacing="15" side="left" offset="0.5" dx="0" dy="0" space="preserve" font-family="Nixie One" font-scale="contain" path="M30.143912325863514,218.06476075814166 C60.16660664265751,-18.586073157051313 413.4023476023331,-26.349550562288368 451.21813107586337,218.06476075814166" x="0" y="0" data-fl-textpath="" d="M-10.184557192869065 206.7741704106004L-10.184557192869065 206.7741704106004L-20.81433748064135 204.31736943500476Q-21.91531380742253 204.0629070058184 -21.663103258140485 202.97167383237155L-21.663103258140485 202.97167383237155L-12.513715206953389 163.38524183492078Q-12.259252777767042 162.2842655081396 -11.15827645098586 162.53872793732597L-11.15827645098586 162.53872793732597L-0.5284961632135747 164.9955289129216Q 0.5724801635676044 165.24999134210796  0.31801773438125736 166.35096766888913Q 0.06580718509921013 167.44220084233598 -1.035169141681969 167.18773841314962L-1.035169141681969 167.18773841314962L-9.462996775891895 165.23986229592668Q-10.56397310267307 164.98539986674032 -10.818435531859425 166.0863761935215L-10.818435531859425 166.0863761935215L-14.37640578065972 181.48055846178934Q-14.630868209846074 182.5815347885705 -13.529891883064899 182.83599721775687L-13.529891883064899 182.83599721775687L 31.181438768252264 193.16987409860786Q 32.28241509503344 193.4243365277942  32.5368775242198 192.32336020101303L 32.5368775242198 192.32336020101303L 33.72136635388369 187.19846154714668Q 33.975828783070035 186.0974852203655  35.07680510985123 186.35194764955185Q 36.177781436632394 186.6064100787382  35.92331900744605 187.70738640551937L 35.92331900744605 187.70738640551937L 32.536491631372854 202.36108902037685Q 32.28202920218651 203.46206534715802  31.181052875405342 203.20760291797166Q 30.08007654862415 202.95314048878532  30.334538977810496 201.85216416200416L 30.334538977810496 201.85216416200416L 31.519027807474394 196.72726550813775Q 31.77349023666075 195.62628918135658  30.67251390987957 195.37182675217022L 30.67251390987957 195.37182675217022L-14.038816741437593 185.03794987131923Q-15.139793068218768 184.78348744213287 -15.394255497405123 185.88446376891403L-15.394255497405123 185.88446376891403L-18.952225746205425 201.2786460371819Q-19.206688175391772 202.37962236396308 -18.105711848610596 202.63408479314944L-18.105711848610596 202.63408479314944L-9.67788421440067 204.58196091037237Q-8.576907887619491 204.83642333955873 -8.831370316805838 205.9373996663399Q-9.083580866087885 207.02863283978675 -10.184557192869065 206.7741704106004ZM 42.51388818470568 158.2585759652588L 42.51388818470568 158.2585759652588L 45.09431852281511 153.6635482972067Q 45.642721175316545 152.6869959275258  44.6574495880492 152.13369682276988L 44.6574495880492 152.13369682276988L 4.644960083891448 129.66387742697444Q 3.6596884966241134 129.11057832221852  3.1112858441226763 130.0871306918994L 3.1112858441226763 130.0871306918994L 0.5308555060132463 134.68215835995153Q-0.02244359874266877 135.66742994721886 -1.0077151860100102 135.11413084246294Q-1.9929867732773587 134.56083173770705 -1.4396876685214437 133.5755601504397L-1.4396876685214437 133.5755601504397L 2.2424444268453385 127.01870852543934Q 2.7957435316012536 126.03343693817199  3.781015118868602 126.58673604292791L 3.781015118868602 126.58673604292791L 20.574228190345572 136.01730308505083Q 21.228169509328318 136.3845370041366  21.64535882214217 136.2747504964323Q 22.05382891736957 136.16006753647352  21.815743779865564 135.3382308937642L 21.815743779865564 135.3382308937642Q 18.83863482597394 126.67033482397551  22.33959818792507 120.43609424967332Q 25.840561549876206 114.20185367537113  31.109825778309826 112.72244349190277Q 36.38780922432989 111.24792976068892  42.752838062428644 114.82233990645722L 42.752838062428644 114.82233990645722L 60.130238712196864 124.5809692496301Q 61.11551029946421 125.134268354386  61.66880940422013 124.14899676711866L 61.66880940422013 124.14899676711866L 64.24923974232956 119.55396909906653Q 64.80253884708547 118.5686975117992  65.78781043435282 119.12199661655512Q 66.77308202162016 119.67529572131104  66.21978291686425 120.66056730857838L 66.21978291686425 120.66056730857838L 59.21785619296198 133.12904845718276Q 58.669453540460545 134.10560082686368  57.68418195319321 133.55230172210776Q 56.69891036592586 132.99900261735183  57.2473130184273 132.02245024767095L 57.2473130184273 132.02245024767095L 59.46050943745095 128.08136389860158Q 60.01380854220686 127.09609231133425  59.02853695493951 126.54279320657832L 59.02853695493951 126.54279320657832L 41.65113630517129 116.78416386340545Q 36.07083704985183 113.65043442054011  31.6599617259602 114.96963072021794Q 27.249086402068542 116.2888270198958  24.448315712507636 121.27621947933756Q 21.64754502294673 126.26361193877933  23.60480087291002 133.23483489732718L 23.60480087291002 133.23483489732718Q 24.507917455968688 136.2422225406822  26.08477370497352 139.11186090988036L 26.08477370497352 139.11186090988036L 45.76404779756103 150.16315364823518Q 46.749319384828375 150.7164527529911  47.30261848958429 149.73118116572377L 47.30261848958429 149.73118116572377L 49.51091845635346 145.79881403424085Q 50.06421756110938 144.81354244697349  51.04948914837673 145.3668415517294Q 52.03476073564406 145.92014065648533  51.48146163088814 146.90541224375266L 51.48146163088814 146.90541224375266L 44.48443135924036 159.36517417477063Q 43.931132254484446 160.35044576203796  42.94586066721711 159.79714665728204Q 41.96058907994976 159.24384755252615  42.51388818470568 158.2585759652588ZM 94.9403585486954 83.41453549832968L 94.9403585486954 83.41453549832968Q 95.18452236017532 81.934540892541  95.23174326781185 81.0585442111078Q 95.27896417544838 80.1825475296746  95.67790690905068 80.04971419309855Q 96.07654410655356 79.93101969125853  96.93087423173361 79.99899054684991Q 97.77798217149596 80.07387805175958  97.64673418277316 81.23804039673395L 97.64673418277316 81.23804039673395Q 97.30801787505163 84.80244374973478  95.92027797197117 88.47148694400195Q 94.53976025430842 92.13361348895083  90.56755827456553 95.93777061400844L 90.56755827456553 95.93777061400844Q 84.81147649664717 101.45034012068282  77.51147609331639 100.83993524572664Q 70.20425350456789 100.23644702008872  64.26976838947802 94.03981193168978L 64.26976838947802 94.03981193168978Q 58.335283274388146 87.84317684329086  58.048024911658 80.51670548027842Q 57.75354436351013 73.19715076658424  63.43018210183362 67.76066440241101Q 69.10681984015712 62.32417803823777  76.1269040546313 62.468807294235674L 76.1269040546313 62.468807294235674Q 83.15390491842375 62.62065873565129  87.99555944122434 67.67618852805134L 87.99555944122434 67.67618852805134L 88.77022416487245 68.48507329483536Q 90.3333869108052 70.11728719923879  88.70117300640176 71.68044994517155L 88.70117300640176 71.68044994517155L 67.28739324287868 92.18831517389121Q 66.36295350941124 93.0736462866319  67.25286766364333 93.78600349905932L 67.25286766364333 93.78600349905932Q 72.11549349633589 98.19836907902105  78.0898043315763 98.62452637853502Q 84.07133735223442 99.04376702873073  89.14853370088763 94.18136255797526Q 94.23295223495853 89.31204143790153  94.9403585486954 83.41453549832968ZM 64.34340258944012 90.63235276031357L 64.34340258944012 90.63235276031357Q 64.96590102808591 91.28234944790788  65.72423049694592 90.55610126948778L 65.72423049694592 90.55610126948778L 86.32190330826728 70.8298174137345Q 87.138010260469 70.04823604076812  86.3633455368209 69.2393512739841L 86.3633455368209 69.2393512739841Q 82.19952264721239 64.89159565252004  76.0268519086 64.80771506669583Q 69.85418116998758 64.72383448087159  64.98642819844811 69.38565612139674Q 60.12589741232634 74.0405611126036  60.35662694291872 80.38270301291713Q 60.594578658928796 86.71792826391238  64.34340258944012 90.63235276031357ZM 145.3791546986688 53.098262521713444L 145.3791546986688 53.098262521713444L 150.4356744625023 51.649398180941375Q 151.5219610277365 51.33814025222038  151.21070309901552 50.25185368698619L 151.21070309901552 50.25185368698619L 142.7158406903823 20.60488229599264Q 142.4045827616613 19.518595730758435  141.3182961964271 19.829853659479433L 141.3182961964271 19.829853659479433L 136.26177643259356 21.2787180002515Q 135.17548986735935 21.5899759289725  134.86423193863837 20.503689363738296Q 134.55297400991736 19.417402798504106  135.63926057515158 19.106144869783108L 135.63926057515158 19.106144869783108L 142.8683534694535 17.03476467156905Q 143.9546400346877 16.723506742848045  144.26589796340872 17.809793308082234L 144.26589796340872 17.809793308082234L 145.42554033501526 21.856931750237976Q 145.96542134412425 23.741110217369858  146.78570610919382 22.247379015247226L 146.78570610919382 22.247379015247226Q 150.54455381315233 14.055092158792199  156.0432787274352 12.479521050576182L 156.0432787274352 12.479521050576182Q 160.2346145012592 11.27856125480313  164.03239161151305 12.770167443055158Q 167.83016872176694 14.261773631307179  170.33738860227533 18.401296365969166L 170.33738860227533 18.401296365969166Q 171.06178840907197 15.447494591998378  172.4896843099856 12.770628271810892L 172.4896843099856 12.770628271810892Q 175.64450267887352 6.863105858876075  180.85483292981988 5.3701695989930585Q 186.0651631807662 3.877233339110049  190.58508517752202 6.691075044544668Q 195.10500717427777 9.504916749979309  197.07447105954782 16.378322892832877L 197.07447105954782 16.378322892832877L 202.56417948380397 35.537341693821894Q 202.87543741252497 36.62362825905608  203.96172397775916 36.312370330335085L 203.96172397775916 36.312370330335085L 209.02785689703722 34.86075149461858Q 210.11414346227144 34.54949356589758  210.42540139099242 35.635780131131796Q 210.73665931971343 36.722066696365985  209.6503727544792 37.03332462508699L 209.6503727544792 37.03332462508699L 195.9035604687721 40.97225239562704Q 194.8172739035379 41.28351032434803  194.50601597481693 40.19722375911384Q 194.19475804609593 39.11093719387962  195.28104461133012 38.79967926515863L 195.28104461133012 38.79967926515863L 199.62619087226693 37.55464755027464Q 200.71247743750112 37.24338962155364  200.40121950878012 36.15710305631945L 200.40121950878012 36.15710305631945L 194.91151108452397 16.998084255330433Q 193.21198770380843 11.066767346042809  189.4039355934468 8.704302716726566Q 185.5986379780296 6.3514512428549  181.18619962898092 7.615764422349926Q 176.7737612799323 8.880077601844938  173.7360365230437 15.232559660173507L 173.7360365230437 15.232559660173507Q 172.38110716129663 18.127774060641222  171.7173062432775 21.293065254392125L 171.7173062432775 21.293065254392125Q 172.3159952407773 22.837918478576434  172.48401943238778 23.424320960694025L 172.48401943238778 23.424320960694025L 177.97372785664393 42.58333976168304Q 178.28498578536494 43.66962632691723  179.37127235059916 43.358368398196234L 179.37127235059916 43.358368398196234L 183.7068054560914 42.11609117825668Q 184.79309202132558 41.80483324953568  185.10434995004658 42.8911198147699Q 185.41560787876756 43.97740638000409  184.32932131353337 44.28866430872509L 184.32932131353337 44.28866430872509L 171.31310884161206 48.01825046348819Q 170.22682227637787 48.329508392209185  169.91556434765687 47.243221826974995Q 169.6043064189359 46.15693526174078  170.69059298417008 45.84567733301978L 170.69059298417008 45.84567733301978L 175.0357392451069 44.60064561813579Q 176.11241265489653 44.29214218435923  175.80115472617553 43.20585561912504L 175.80115472617553 43.20585561912504L 170.31144630191937 24.046836818136022Q 168.61192292120384 18.1155199088484  164.81348396628675 15.750300784587722Q 161.00818635086958 13.397449310716041  156.62458746815457 14.653499005377768Q 152.2506017408841 15.90679420509506  149.32537004694186 22.071007012644436L 149.32537004694186 22.071007012644436Q 148.04167147769653 24.706555908665415  147.16638113989728 27.932445991193838L 147.16638113989728 27.932445991193838L 153.38327622948393 49.62933782954419Q 153.69453415820493 50.71562439477838  154.78082072343912 50.40436646605738L 154.78082072343912 50.40436646605738L 159.11635382893135 49.16208924611783Q 160.20264039416557 48.85083131739684  160.51389832288658 49.93711788263106Q 160.82515625160755 51.023404447865246  159.73886968637333 51.33466237658624L 159.73886968637333 51.33466237658624L 146.00167055611078 55.27083565218185Q 144.91538399087656 55.58209358090285  144.60412606215556 54.49580701566866Q 144.29286813343458 53.40952045043444  145.3791546986688 53.098262521713444ZM 256.68228225248595 32.65465724862158L 256.68228225248595 32.65465724862158Q 257.899095734323 31.77752273760317  258.55033336305917 31.189739145693558Q 259.2015709917952 30.601955553783945  259.5780973121545 30.78911305450647Q 259.94443621936466 30.986079561974286  260.50222518143266 31.63674958110465Q 261.0500159335534 32.28723039703309  260.1359867981613 33.020067854900944L 260.1359867981613 33.020067854900944Q 257.3821983532202 35.308374914827404  253.81085669078584 36.931094462426465Q 250.24951323829862 38.55400321322744  244.750497767336 38.4499414521732L 244.750497767336 38.4499414521732Q 236.78192443941379 38.29914650024551  232.0366651728718 32.71836568630044Q 227.2814076963826 27.13739566915346  227.44374404362722 18.558931534451766L 227.44374404362722 18.558931534451766Q 227.60608039087182 9.98046739975007  232.56908298306567 4.5834028948662136Q 237.5220873653123-0.8138508132195534  245.38068038381525-0.6651370965129493Q 253.23927340231822-0.5164233798063451  258.11453895792823 4.536722745359872L 258.11453895792823 4.536722745359872Q 262.9896153103363 9.599867080473288  262.85717306899454 16.598614043516626L 262.85717306899454 16.598614043516626L 262.8359823103799 17.718413557603565Q 262.79322238674666 19.978009005671844  260.5336269386784 19.935249082038645L 260.5336269386784 19.935249082038645L 230.8889344452163 19.374261588355335Q 229.6091635719741 19.350043578509986  229.7377567593656 20.482679350572877L 229.7377567593656 20.482679350572877Q 230.07374631968148 27.040210213280172  234.00902049680673 31.555475117009642Q 237.9542928838792 36.070929223941036  244.98303447676415 36.203939074888545Q 252.0217742795963 36.337138129037974  256.68228225248595 32.65465724862158ZM 229.89891061256552 16.194960908837363L 229.89891061256552 16.194960908837363Q 229.881882324393 17.094799804085792  230.9316943688495 17.114666140287056L 230.9316943688495 17.114666140287056L 259.4465891382775 17.65427367215377Q 260.57638686231167 17.675653633970366  260.5975776209263 16.55585411988343L 260.5975776209263 16.55585411988343Q 260.71147794848025 10.536931731666158  256.3941905581401 6.1244574156831035Q 252.0769031678 1.7119830997000478  245.33810966338396 1.5844601416081248Q 238.60931436891516 1.457126386718119  234.3003874534862 6.116434150484289Q 230.0014587480044 10.775931117452377  229.89891061256552 16.194960908837363ZM 317.6231699946584 12.652749703045359L 316.23548645312815 12.307446374700362Q 307.03601794004663 10.018302631546106  299.10408103190593 15.721746931727765L 299.10408103190593 15.721746931727765Q 296.8381389109425 17.33224570677975  295.16414571328926 19.09004170581106L 295.16414571328926 19.09004170581106L 290.0787694231175 39.526835681074374Q 289.8059073524672 40.62339680130455  290.90246847269736 40.8962588719548L 290.90246847269736 40.8962588719548L 296.7443250601183 42.349913443029536Q 297.8408861803485 42.62277551367977  297.5680241096983 43.71933663390995L 297.5680241096983 43.71933663390995Q 297.295162039048 44.815897754140124  296.1986009188178 44.54303568348989L 296.1986009188178 44.54303568348989L 280.86615339701535 40.72779611156615Q 279.76959227678515 40.4549340409159  280.0424543474354 39.358372920685724L 280.0424543474354 39.358372920685724Q 280.3153164180856 38.26181180045555  281.4118775383158 38.534673871105795L 281.4118775383158 38.534673871105795L 286.5162239917767 39.804810589353835Q 287.61278511200686 40.07767266000407  287.8856471826571 38.98111153977389L 287.8856471826571 38.98111153977389L 295.3326084736779 9.053726630129049Q 295.6054705443281 7.957165509898864  294.50890942409796 7.68430343924863L 294.50890942409796 7.68430343924863L 289.4045629706371 6.414166721000591Q 288.30800185040687 6.141304650350342  288.58086392105713 5.044743530120172L 288.58086392105713 5.044743530120172Q 288.8537259917074 3.948182409890002  289.9502871119376 4.22104448054025L 289.9502871119376 4.22104448054025L 297.2477558058588 6.036905340088772Q 298.344316926089 6.309767410739006  298.07145485543873 7.406328530969176L 298.07145485543873 7.406328530969176L 296.63711795308257 13.170552472710106Q 296.1831527381955 14.994919646190397  298.1510450365442 13.62970907558249L 298.1510450365442 13.62970907558249Q 301.61182738830945 11.2345085591934  306.5315414821787 10.01643087916468Q 311.45125557604797 8.798353199135988  316.7787958858388 10.124028214950002L 316.7787958858388 10.124028214950002L 320.3596016678294 11.015055684595481Q 321.4561627880596 11.287917755245715  321.18330071740934 12.384478875475892L 321.18330071740934 12.384478875475892L 318.9134746429737 21.506314742877365Q 318.64061257232345 22.602875863107542  317.54405145209324 22.330013792457308Q 316.4474903318631 22.05715172180706  316.72035240251336 20.960590601576882L 316.72035240251336 20.960590601576882L 318.4468690442383 14.022172893925756Q 318.7197311148886 12.925611773695593  317.6231699946584 12.652749703045359L 317.6231699946584 12.652749703045359ZM 330.4897759308366 51.02611938358416L 330.4897759308366 51.02611938358416L 334.9604433872132 53.797532830635134Q 335.9208719472333 54.392912525533916  336.51625164213215 53.43248396551384L 336.51625164213215 53.43248396551384L 352.765375350697 27.220433707974763Q 353.36075504559585 26.260005147954672  352.40032648557576 25.66462545305589L 352.40032648557576 25.66462545305589L 347.929659029199 22.893212006004916Q 346.969230469179 22.297832311106134  347.56461016407775 21.33740375108607Q 348.15998985897653 20.37697519106601  349.12041841899656 20.97235488596479L 349.12041841899656 20.97235488596479L 355.5119429954134 24.93452772281333Q 356.4723715554335 25.52990741771211  355.87699186053476 26.490335977732173L 355.87699186053476 26.490335977732173L 353.6588073335225 30.068569816391033Q 352.62611334945024 31.734445902797546  354.28356795374367 31.33828402337653L 354.28356795374367 31.33828402337653Q 362.87658809571315 28.61752956188846  367.7382264703281 31.63130996438497L 367.7382264703281 31.63130996438497Q 371.4439508258037 33.92852719425986  372.8910719683843 37.743476787465056Q 374.338193110965 41.55842638067023  372.9570613375563 46.196774688471265L 372.9570613375563 46.196774688471265Q 375.63144144389526 44.74853746797936  378.5734166620561 44.007401977176414L 378.5734166620561 44.007401977176414Q 385.0684373896284 42.37448870685054  389.6750947306096 45.23020370362164Q 394.28175207159086 48.085918700392796  395.23483186311427 53.32414730470069Q 396.18791165463773 58.56237590900861  392.42068615151715 64.63942387727724L 392.42068615151715 64.63942387727724L 381.9198743644971 81.5786638783393Q 381.32449466959827 82.53909243835938  382.28492322961836 83.13447213325819L 382.28492322961836 83.13447213325819L 386.76409005378287 85.91115442716665Q 387.72451861380284 86.50653412206543  387.1291389189041 87.4669626820855Q 386.53375922400534 88.42739124210557  385.5733306639853 87.83201154720679L 385.5733306639853 87.83201154720679L 373.41923472744804 80.29756054096559Q 372.45880616742795 79.70218084606681  373.0541858623267 78.74175228604673Q 373.6495655572255 77.78132372602667  374.6099941172456 78.37670342092545L 374.6099941172456 78.37670342092545L 378.45170835732586 80.75822220052055Q 379.41213691734595 81.35360189541933  380.0075166122447 80.39317333539925L 380.0075166122447 80.39317333539925L 390.50832839926477 63.453933334337194Q 393.75920691034923 58.20982340927182  392.95015436291874 53.8021103996152Q 392.1358329686307 49.40289675774639  388.23462315403594 46.98449605014872Q 384.3334133394411 44.566095342550994  377.5875262886355 46.58471068425766L 377.5875262886355 46.58471068425766Q 374.5328669605397 47.52660048103726  371.74257222333546 49.1618237928605L 371.74257222333546 49.1618237928605Q 371.00070300866287 50.6432521807082  370.6793033503547 51.16171361576329L 370.6793033503547 51.16171361576329L 360.17849156333466 68.10095361682535Q 359.5831118684358 69.06138217684543  360.5435404284559 69.65676187174421L 360.5435404284559 69.65676187174421L 364.3767553007484 72.03301180448182Q 365.3371838607685 72.6283914993806  364.7418041658698 73.58882005940066Q 364.146424470971 74.54924861942074  363.1859959109509 73.95386892452196L 363.1859959109509 73.95386892452196L 351.6778519262856 66.81985027945164Q 350.71742336626556 66.22447058455286  351.31280306116435 65.26404202453278Q 351.90818275606307 64.30361346451272  352.86861131608316 64.8989931594115L 352.86861131608316 64.8989931594115L 356.7103255561634 67.2805119390066Q 357.66225474839575 67.87062278704786  358.2576344432945 66.91019422702779L 358.2576344432945 66.91019422702779L 368.7584462303146 49.97095422596573Q 372.00932474139904 44.72684430090035  371.20877156175635 40.324400138101254Q 370.39445016746834 35.92518649623244  366.51873845623686 33.52259232920727Q 362.6515261127932 31.125267009039618  356.12066164945486 33.10069338364963L 356.12066164945486 33.10069338364963Q 353.3061769481109 33.920861577315264  350.3288961195753 35.44017025827324L 350.3288961195753 35.44017025827324L 338.4371087621722 54.6232433553114Q 337.8417290672735 55.58367191533148  338.8021576272936 56.17905161023026L 338.8021576272936 56.17905161023026L 342.6353724995861 58.55530154296787Q 343.59580105960606 59.15068123786662  343.00042136470734 60.111109797886684Q 342.40504166980855 61.07153835790676  341.4446131097885 60.47615866300801L 341.4446131097885 60.47615866300801L 329.299016541039 52.9469765036243Q 328.338587981019 52.35159680872552  328.93396767591776 51.39116824870544Q 329.5293473708165 50.43073968868538  330.4897759308366 51.02611938358416ZM 423.39261538143523 116.16890329311195L 428.70003365688723 111.96602198983942Q 429.58590997169676 111.26450708988403  428.88439507174144 110.37863077507444L 428.88439507174144 110.37863077507444L 421.1739392686919 100.64183092557454Q 417.1138441839944 95.51472375844656  413.1637689603016 94.65019745626239Q 409.22774144647394 93.78730267102381  406.1310941513432 96.23950077263774Q 403.0344468562124 98.6916988742517  402.85921225138986 102.5296270696812Q 402.67613803316186 106.3737633615705  406.31408255859424 110.96777681713164L 406.31408255859424 110.96777681713164Q 410.84599297423523 116.69069460306955  420.089537395515 116.47578408255498L 420.089537395515 116.47578408255498Q 421.7014013644642 116.44942984943151  423.39261538143523 116.16890329311195L 423.39261538143523 116.16890329311195ZM 437.04391754345943 90.38337151110068L 437.04391754345943 90.38337151110068Q 440.96743450604174 95.33800718330991  440.5526015608723 100.56470916712362Q 440.1237209058377 105.78977963399177  436.0000842546002 109.05523837183719L 436.0000842546002 109.05523837183719L 418.306076798625 123.06691208156556Q 417.42020048381545 123.76842698152095  418.12171538377083 124.65430329633048L 418.12171538377083 124.65430329633048L 421.393382218076 128.78577956097334Q 422.09489711803144 129.67165587578293  421.20902080322185 130.37317077573832L 421.20902080322185 130.37317077573832Q 420.32314448841225 131.0746856756937  419.6216295884569 130.1888093608841L 419.6216295884569 130.1888093608841L 414.9531410507007 124.29342008002752Q 414.2516261507453 123.40754376521798  415.1375024655549 122.7060288652626L 415.1375024655549 122.7060288652626L 418.43797970922594 120.0924202556943Q 419.02595071463054 119.62681302121064  419.08273583640425 119.19917362879553Q 419.1254732483128 118.76990271943487  418.27477104299686 118.67821979915789L 418.27477104299686 118.67821979915789Q 415.0154260432855 118.66984287510729  411.08878633914435 117.17448317461307Q 407.1699862484086 115.67291537765905  404.74262053263374 112.60762653614987L 404.74262053263374 112.60762653614987Q 400.3969530107862 107.11989715237374  400.6017895712879 102.35287061757427Q 400.8004180353298 97.57800446936946  404.69670589781083 94.49258052885773Q 408.58515414688645 91.41336468480574  413.6639823709625 92.67237376750882Q 418.7428105950386 93.93138285021178  422.94569189831105 99.23880112566377L 422.94569189831105 99.23880112566377L 430.6561477013605 108.97560097516367Q 431.35766260131595 109.86147728997327  432.2435389161255 109.15996239001788L 432.2435389161255 109.15996239001788L 434.6032625511492 107.29132535562346Q 438.02133399590116 104.58459529915842  438.2399419552777 100.18933528863602Q 438.45854991465416 95.79407527811361  435.46624742103916 92.01538161671351Q 432.4739449274241 88.23668795531341  429.52702224829915 86.6415557591431Q 426.5738914727144 85.03858394956754  425.03580539797275 84.67486534035726Q 423.5055589366365 84.30493863468718  423.813805969696 83.24447469536159Q 424.12205300275537 82.18401075603595  425.10770181324096 82.46221288109678L 425.10770181324096 82.46221288109678Q 431.95327844643805 83.95488851867725  437.04391754345943 90.38337151110068ZM 428.04055924045167 146.12032319076445Q 427.54474595499653 145.10490742076365  428.5601617249973 144.6090941353085Q 429.575577494998 144.11328084985334  430.07139078045316 145.12869661985414L 430.07139078045316 145.12869661985414L 432.3837235365139 149.86430821976901Q 432.87953682196905 150.8797239897697  433.89495259196974 150.38391070431456L 433.89495259196974 150.38391070431456L 461.60771573075067 136.8521569667598Q 462.62313150075147 136.35634368130465  462.1273182152963 135.34092791130396L 462.1273182152963 135.34092791130396L 459.8149854592356 130.6053163113891Q 459.3191721737804 129.5899005413883  460.33458794378106 129.09408725593315Q 461.3500037137818 128.598273970478  461.84581699923694 129.6136897404788L 461.84581699923694 129.6136897404788L 465.149776326208 136.3801328803951Q 465.6455896116631 137.39554865039585  464.63017384166244 137.891361935851L 464.63017384166244 137.891361935851L 434.88657916288 152.41474224431605Q 433.87116339287934 152.9105555297712  434.36258895014464 153.91698531950638L 434.36258895014464 153.91698531950638L 436.6749217062054 158.65259691942126Q 437.17073499166054 159.668012689422  436.15531922165985 160.16382597487717Q 435.13990345165905 160.6596392603323  434.6440901662039 159.64422349033157L 434.6440901662039 159.64422349033157L 428.04055924045167 146.12032319076445ZM 470.22642324502044 131.09690885886127Q 470.62647117559976 129.93339622324476  471.77667664958284 129.37176701494158Q 472.92688212356603 128.8101378066384  474.08140877891697 129.21457346540763Q 475.24053368634355 129.60563541572145  475.8021628946467 130.7558408897046Q 476.3637921029499 131.90604636368766  475.95935644418074 133.06057301903866Q 475.5682944938669 134.2196979264653  474.4180890198837 134.78132713476847Q 473.26788354590065 135.34295634307165  472.10437091028416 134.9429084124923Q 470.95423198312307 134.54745873398858  470.3926027748199 133.3972532600055Q 469.8309735665167 132.24704778602236  470.22642324502044 131.09690885886127ZM 486.9173154329562 196.4838764555522L 497.120029090966 193.87897069666963Q 498.214907194817 193.5994319020317  497.9353684001791 192.50455379818067L 497.9353684001791 192.50455379818067L 496.44861781984815 186.68135255557485Q 496.16907902521024 185.58647445172386  497.26395712906134 185.30693565708592L 497.26395712906134 185.30693565708592Q 498.3588352329123 185.02739686244797  498.63837402755024 186.12227496629896L 498.63837402755024 186.12227496629896L 500.684202197157 194.1352324166068Q 500.9637409917949 195.2301105204578  499.8688628879439 195.50964931509574L 499.8688628879439 195.50964931509574L 453.21542863977925 207.42097052024263Q 452.12055053592826 207.70050931488055  452.40008933056623 208.7953874187316L 452.40008933056623 208.7953874187316L 453.7037791073289 213.90158884111634Q 453.980844107324 214.9867777582076  452.885966003473 215.26631655284552L 452.885966003473 215.26631655284552Q 451.79108789962197 215.54585534748344  451.51402289962687 214.46066643039217L 451.51402289962687 214.46066643039217L 449.65125553358837 207.1647088003054Q 449.3717167389504 206.0698306964544  450.46659484280144 205.7902919018165L 450.46659484280144 205.7902919018165L 454.5457424686534 204.748824357192Q 455.27243147563416 204.563289758981  455.49858242590176 204.1959265222615Q 455.7150441894097 203.83103708018473  454.9755761184966 203.40058734781178L 454.9755761184966 203.40058734781178Q 452.1075844092313 202.19252130839774  449.0924066509803 199.19525537322474Q 446.0772288927293 196.1979894380517  445.0357613481048 192.11884181219972L 445.0357613481048 192.11884181219972Q 443.0616732231397 184.38687077792446  447.0134365145766 178.72325295108874Q 450.9627260113707 173.04994593749328  459.70237246865935 170.81858316967552Q 468.4517081127076 168.58474660721495  474.55937870309475 172.57794832504987Q 480.6670492934819 176.57115004288477  483.0319969720116 185.8340125851995L 483.0319969720116 185.8340125851995L 485.54289853446727 195.66853714633908Q 485.8224373291052 196.76341525019012  486.9173154329562 196.4838764555522L 486.9173154329562 196.4838764555522ZM 460.66930850081127 203.1853861429339L 482.53780301755216 197.6020316341039Q 483.6326811214032 197.32249283946595  483.3531423267653 196.2276147356149L 483.3531423267653 196.2276147356149L 480.8422407643096 186.39309017447533Q 478.7197249607757 178.07976793461546  473.46799867423005 174.52856095512158Q 468.2162723876845 170.97735397562764  460.3002068049741 172.99844419880625Q 452.3938304090235 175.01706062734203  448.96239931725154 179.96986595992087Q 445.52127903871985 184.92514508714248  447.0748220744067 191.0099543722613Q 448.62836511009357 197.0947636573802  454.77067071838485 200.73853667642985L 454.77067071838485 200.73853667642985Q 457.32489681292174 202.2537690209851  460.66930850081127 203.1853861429339L 460.66930850081127 203.1853861429339Z"/><path id="_HcRqEo-YtBbTTc_n1UX0a" fill="#4c96d7" transform="matrix(-0.3019655563257092, -0.5230478940021177, 0.5230478940021177, -0.3019655563257092, 203.14495906994648, 455.5917870109319)" text="spa and bath" text-anchor="middle" font-size="100" letter-spacing="15" side="left" offset="0.5" dx="0" dy="0" space="preserve" font-family="Nixie One" font-scale="contain" path="M30.143912325863514,218.06476075814166 C60.16660664265751,-18.586073157051313 413.4023476023331,-26.349550562288368 451.21813107586337,218.06476075814166" x="0" y="0" data-fl-textpath="" d="M 32.424459663116146 196.16262078073132L 32.424459663116146 196.16262078073132Q 33.83609496239471 189.74606517964511  32.34397350394259 185.82386253913472Q 30.84208559860904 181.89951129086288  27.22850025248745 181.10452641912306L 27.22850025248745 181.10452641912306Q 22.355043258663976 180.03237114615501  19.19326131138385 186.67824467172363L 19.19326131138385 186.67824467172363Q 17.745291410712277 189.7693259011236  16.07562459041359 194.19391771384417L 16.07562459041359 194.19391771384417Q 14.420998024445126 198.55014439839485  13.37188852701128 200.4797996169233L 13.37188852701128 200.4797996169233Q 11.214680530658313 204.65378496194677  8.62930909706548 206.39905128843168Q 6.041789055711185 208.15408406179802  2.1645096437915186 207.3010867804988Q-1.7030033212467401 206.45023810696102 -3.716067615633172 201.87075427724108Q-5.726983302258148 197.28150400063973 -4.1692426752003655 190.20083001161765Q-2.611502048142583 183.12015602259558  4.142185326602544 178.81060768846496L 4.142185326602544 178.81060768846496Q 5.030540617368892 178.30978349039995  4.639296470383435 177.94725346757482Q 4.255670162517944 177.59663849939247  3.659916902751945 177.46557342594346L 3.659916902751945 177.46557342594346L 0.7104499445662 176.81669388198284Q-0.39315855303310343 176.57390120493798 -0.14821726822678016 175.4605262604573L-0.14821726822678016 175.4605262604573Q 0.09457540881808768 174.356917762858  1.1981839064173911 174.59971043990285L 1.1981839064173911 174.59971043990285L 13.005818186041779 177.1973772235068Q 14.109426683641075 177.44016990055167  13.866634006596207 178.54377839815098L 13.866634006596207 178.54377839815098Q 13.621692721789884 179.65715334263166  12.518084224190588 179.4143606655868L 12.518084224190588 179.4143606655868L 8.826367303017697 178.60218693175528Q 3.928497621537332 180.8523808307861  0.4778219489379154 185.27423987450632L 0.4778219489379154 185.27423987450632Q-1.2711505727378452 187.592600312062 -1.9844883495422394 190.83506067669L-1.9844883495422394 190.83506067669Q-3.3166251616468188 196.89025774316403 -1.8606397149426783 200.6509234261231Q-0.4046542682385308 204.4115891090821  2.91593767144078 205.14211574797815Q 6.2365296111200905 205.87264238687422  8.668567142765468 203.42809878025392Q 11.100604674410846 200.98355517363362  13.260155119567287 195.35612753084473L 13.260155119567287 195.35612753084473Q 14.261603870807107 192.9449866393495  15.202109909087312 190.43852531071138Q 16.130700892724647 187.93968182119318  17.033313686937348 185.97779748624282L 17.033313686937348 185.97779748624282Q 18.933664288596013 181.90089086592695  21.443833922915218 179.98549315084483Q 23.956152164995892 178.0603289888813  28.048293408306563 178.96059564093264Q 32.140434651617255 179.86086229298397  34.236904328503776 184.38702124886424Q 36.34528906003316 188.9055623656246  34.64144310519617 196.65035474258252L 34.64144310519617 196.65035474258252Q 33.30930629309158 202.70555180905657  28.627472569328006 207.09205759191272L 28.627472569328006 207.09205759191272Q 27.26778942791826 208.33903864829094  26.239774105034535 208.962724864201Q 25.21175878215079 209.58641108011108  25.613745967943544 209.9001088685292Q 26.003818099093408 210.22142449606724  26.599571358859407 210.35248956951625L 26.599571358859407 210.35248956951625L 29.54903831704516 211.00136911347687Q 30.652646814644456 211.24416179052173  30.409854137599588 212.34777028812107L 30.409854137599588 212.34777028812107Q 30.164912852793258 213.46114523260178  29.06130435519396 213.2183525555569L 29.06130435519396 213.2183525555569L 17.253670075569573 210.62068577195296Q 16.15006157797027 210.37789309490807  16.3950028627766 209.2645181504274L 16.3950028627766 209.2645181504274Q 16.637795539821468 208.16090965282805  17.74140403742077 208.40370232987294L 17.74140403742077 208.40370232987294L 21.433120958593662 209.21587606370443Q 26.376893098703412 207.12936772998648  29.813895429095318 202.39732641773227L 29.813895429095318 202.39732641773227Q 31.595097067192967 199.93246927695546  32.424459663116146 196.16262078073132ZM 45.37245202833641 153.93745407563227L 50.1187965777398 144.90904261965903Q 54.157842723702686 137.22604149830144  52.61005505844947 131.07985134965733Q 51.06692067216626 124.92480981723284  43.78223182092512 121.0951612249201Q 36.49754296968396 117.26551263260737  30.63166298230651 118.66692334103111Q 24.77463437870943 120.07298732842489  21.85702846451735 125.62280495871431Q 18.93942255032526 131.17262258900374  21.101901701821646 138.10516785891315L 21.101901701821646 138.10516785891315Q 21.983048537838137 140.96350308302144  23.78918949123552 143.86750977317573L 23.78918949123552 143.86750977317573L 43.846425137544685 154.41183991920326Q 44.846631504726034 154.93766044281364  45.37245202833641 153.93745407563227L 45.37245202833641 153.93745407563227ZM 52.128060695882866 145.9653369458498L 47.38171614647948 154.99374840182304Q 46.8558956228691 155.99395476900438  47.85610199005043 156.51977529261475L 47.85610199005043 156.51977529261475L 57.22086602967758 161.4429444428783Q 58.22107239685893 161.96876496648866  58.74689292046931 160.9685585993073L 58.74689292046931 160.9685585993073L 61.55747341835131 155.62232279596628Q 62.08329394196169 154.62211642878492  63.083500309143055 155.14793695239533L 63.083500309143055 155.14793695239533Q 64.09255806010475 155.6784107549757  63.56673753649437 156.67861712215705L 63.56673753649437 156.67861712215705L 56.186637090069105 170.71691179781737Q 55.66081656645873 171.71711816499874  54.651758815497026 171.18664436241838L 54.651758815497026 171.18664436241838Q 53.65155244831566 170.66082383880797  54.17737297192604 169.66061747162664L 54.17737297192604 169.66061747162664L 56.6389575470578 164.97823545181308Q 57.16477807066817 163.97802908463171  56.16457170348682 163.45220856102134L 56.16457170348682 163.45220856102134L 15.377395243560692 142.009899067246Q 14.377188876379343 141.48407854363563  13.851368352768972 142.484284910817L 13.851368352768972 142.484284910817L 11.389783777637213 147.16666693063058Q 10.863963254026835 148.16687329781192  9.854905503065119 147.63639949523153L 9.854905503065119 147.63639949523153Q 8.85469913588377 147.11057897162118  9.380519659494148 146.11037260443982L 9.380519659494148 146.11037260443982L 12.893745281846662 139.42757785026356Q 13.424219084427037 138.41852009930182  14.424425451608386 138.9443406229122L 14.424425451608386 138.9443406229122L 18.168560790703168 140.91267762722362Q 18.84126595801098 141.26632682894387  19.246405840522044 141.14038368463298Q 19.651545723033124 141.0144405403221  19.399659434411376 140.20416077529995L 19.399659434411376 140.20416077529995Q 18.137094284893443 137.40515573007  17.852375967983058 133.15442220748642Q 17.563004372102668 128.91254006868323  19.77796516182424 124.69928138922904L 19.77796516182424 124.69928138922904Q 23.29584406314676 118.0076352512724  30.121566991493296 116.47815608977842Q 36.947289919839825 114.94867692828443  44.895832554608425 119.12732144334741Q 52.85322657315738 123.3106192373804  54.73868331987817 130.44775821993113L 54.73868331987817 130.44775821993113Q 56.55332899635603 137.5476709707218  52.128060695882866 145.9653369458498L 52.128060695882866 145.9653369458498ZM 84.44896438276061 84.24404694956591L 79.59798239732494 79.4787585241945Q 78.79186333209815 78.68687971233132  77.99998452023496 79.49299877755811L 77.99998452023496 79.49299877755811L 69.26829425845148 88.38170988616523Q 64.65717692919502 93.07574833677798  64.29712853671813 97.1096255231924Q 63.9300723671451 101.15063650664425  66.75505599395764 103.92571623671348Q 69.58717341780758 106.70780374387884  73.43128720324624 106.40483641131588Q 77.27540098868494 106.10186907875294  81.40298169830811 101.90006262372117L 81.40298169830811 101.90006262372117Q 86.53968230977465 96.67098939530302  85.17801989883378 87.49744180025394L 85.17801989883378 87.49744180025394Q 84.94452223642966 85.89432644518686  84.44896438276061 84.24404694956591L 84.44896438276061 84.24404694956591ZM 57.060959309193024 73.85280168779694L 57.060959309193024 73.85280168779694Q 61.50388998814225 69.32997436608193  66.76992508367867 69.09212068715571Q 72.02895240211896 68.86140080526688  75.8027310349064 72.56851488912199L 75.8027310349064 72.56851488912199L 91.967915121667 88.44813778896258Q 92.7740341868938 89.24001660082577  93.56591299875699 88.43389753559896L 93.56591299875699 88.43389753559896L 97.27302708261209 84.66011890281152Q 98.06490589447529 83.85399983758471  98.87815875673952 84.65288642654404L 98.87815875673952 84.65288642654404Q 99.68427782196632 85.44476523840723  98.89239901010313 86.25088430363404L 98.89239901010313 86.25088430363404L 93.60152730252163 91.6369010668751Q 92.80264071356231 92.45015392913932  91.99652164833552 91.65827511727613L 91.99652164833552 91.65827511727613L 88.97892550151303 88.69398540561127Q 88.43675692667021 88.16139434630506  88.01250970266403 88.16517494454318Q 87.58826247865784 88.16895554278132  87.58881589803795 89.0245837878311L 87.58881589803795 89.0245837878311Q 87.99261520903973 92.28087709716836  86.9895662632812 96.369983700378Q 85.98664333746397 100.47323187772118  83.23258693868314 103.2768141134215L 83.23258693868314 103.2768141134215Q 78.31312741719678 108.28473963368008  73.52929206155471 108.67386595007203Q 68.75959828004616 109.0628662465227  65.19983355838087 105.56598547555163Q 61.64006883671559 102.06910470458055  62.25834748260424 96.85908248619816Q 62.883633905589036 91.64192647077839  67.64892233096043 86.79094448534272L 67.64892233096043 86.79094448534272L 76.38061259274393 77.90223337673561Q 77.17249140460711 77.09611431150881  76.36637233938032 76.30423549964563L 76.36637233938032 76.30423549964563L 74.21196563408388 74.18788681661302Q 71.08736253170032 71.11848044850615  66.68484559789874 71.44763792994961Q 62.275320887001016 71.7839292084305  58.89056454956809 75.2295531774973Q 55.505808212135165 78.6751771465641  54.275058521271 81.8116808048495Q 53.044308830406834 84.94818446313491  52.88159037718931 86.52654522829049Q 52.70473034983823 88.10503201338733  51.607057085281724 87.92388730803304Q 50.50950984066651 87.75688417681229  50.66300149746009 86.73017082280606L 50.66300149746009 86.73017082280606Q 51.286550981978266 79.73105044661897  57.060959309193024 73.85280168779694ZM 163.39658182850292 38.10176092626816L 160.95309703602405 31.75594481886916Q 160.54704735727387 30.701419495139625  159.49252203354433 31.107469173889797L 159.49252203354433 31.107469173889797L 147.8647472249868 35.58479572010842Q 141.72423693282713 37.94922659283062  139.7267886240789 41.472293474665065Q 137.72000823281974 44.998953716488465  139.1429787884398 48.69445839079729Q 140.56954270404879 52.39929514761699  144.19429879191682 53.714644266088456Q 147.81905487978486 55.02999338455992  153.31565147869367 52.91350435107456L 153.31565147869367 52.91350435107456Q 160.15606795916935 50.27957147918189  162.71361569093654 41.365142187312856L 162.71361569093654 41.365142187312856Q 163.16461633842965 39.80915426449315  163.39658182850292 38.10176092626816L 163.39658182850292 38.10176092626816ZM 142.76599714034947 17.30609369905641L 142.76599714034947 17.30609369905641Q 148.6825374522479 15.027903466068771  153.57473753747723 16.991084131744344Q 158.45760554019566 18.957858157408864  160.35849297434464 23.894529805664845L 160.35849297434464 23.894529805664845L 168.50104670928158 45.041028775320896Q 168.90709638803176 46.095554099050446  169.96162171176132 45.689504420300274L 169.96162171176132 45.689504420300274L 174.8982933600173 43.788616986151276Q 175.95281868374684 43.38256730740111  176.36246172248593 44.44642471364153L 176.36246172248593 44.44642471364153Q 176.7685114012361 45.50095003737106  175.71398607750658 45.90699971612123L 175.71398607750658 45.90699971612123L 168.6682637817915 48.61998650777056Q 167.6044063755511 49.02962954650966  167.19835669680091 47.975104222780125L 167.19835669680091 47.975104222780125L 165.6783654214795 44.027633320677516Q 165.40527006232008 43.31839504985057  165.0175067873255 43.146233374192335Q 164.62974351233083 42.97407169853409  164.2760880785035 43.75319160851225L 164.2760880785035 43.75319160851225Q 163.29583676344126 46.88458225155229  160.69019529212437 50.191776307387784Q 158.07881509828556 53.5118958057231  154.41130667150938 54.92408628137633L 154.41130667150938 54.92408628137633Q 147.860184748871 57.44662499361187  143.34432376089424 55.82074076118032Q 138.84138821541728 54.2005952512707  137.04830158093648 49.543886078341146Q 135.25521494645565 44.88717690541161  137.97456063202165 40.400334024008934Q 140.7032384000985 35.90989778261734  147.04905450749752 33.466412990138465L 147.04905450749752 33.466412990138465L 158.67682931605506 28.989086443919845Q 159.73135463978463 28.583036765169673  159.32530496103445 27.528511441440124L 159.32530496103445 27.528511441440124L 158.2401102443747 24.71022252315411Q 156.6662185692192 20.622770383388293  152.52229941882536 19.100129889049875Q 148.36904818592063 17.581082754700397  143.86165233316515 19.31667562935818Q 139.35425648040967 21.052268504015963  136.93563442057666 23.398044992023486Q 134.5170123607436 25.743821480031016  133.71557676829937 27.113274287236713Q 132.90121573335534 28.47698837192049  131.97696669366547 27.857743902722454Q 131.04697893145368 27.251424876024252  131.61167890304233 26.380325603789586L 131.61167890304233 26.380325603789586Q 135.07636115138362 20.26702232994257  142.76599714034947 17.30609369905641ZM 192.971913459203 39.17869148946673L 192.971913459203 39.17869148946673L 198.2292995421405 38.59218353987371Q 199.35233286420458 38.46689923306083  199.22704855739173 37.3438659109967L 199.22704855739173 37.3438659109967L 195.7933715821751 6.564802208052981Q 195.66808727536224 5.441768885988839  194.54505395329812 5.5670531928017155L 194.54505395329812 5.5670531928017155L 189.28766787036065 6.153561142394739Q 188.16463454829653 6.278845449207616  188.03824153080387 5.145873779160606Q 187.91295722399101 4.022840457096464  189.03599054605513 3.897556150283588L 189.03599054605513 3.897556150283588L 196.54938162110372 3.059370876385053Q 197.67241494316787 2.9340865695721803  197.79769924998072 4.057119891636322L 197.79769924998072 4.057119891636322L 198.2666838675192 8.2610410883897Q 198.35094587918095 9.016355535087701  198.6823576390598 9.281244654180949Q 199.01376939893868 9.546133773274207  199.55348598510804 8.882201542836743L 199.55348598510804 8.882201542836743Q 204.8729620029487 1.3660871946101203  211.9987575066654 0.571141637222226Q 219.13449135836498-0.22491263084543078  223.43179717812745 3.2098162800637873Q 227.7302117085697 6.654483538955873  228.541787926154 13.929354262415604L 228.541787926154 13.929354262415604L 230.76142670703345 33.82592692411832Q 230.8867110138463 34.948960246182466  232.00974433591045 34.823675939369586L 232.00974433591045 34.823675939369586L 237.2671304188479 34.237167989776566Q 238.390163740912 34.11188368296369  238.51655675840465 35.24485535301069Q 238.6418410652175 36.36788867507484  237.5188077431534 36.49317298188771L 237.5188077431534 36.49317298188771L 223.2572783877371 38.084172807343265Q 222.13424506567296 38.20945711415614  222.0089607588601 37.08642379209199Q 221.88256774136744 35.95345212204499  223.00560106343158 35.82816781523211L 223.00560106343158 35.82816781523211L 227.50767269967105 35.32592187730085Q 228.63070602173514 35.20063757048797  228.50542171492228 34.07760424842384L 228.50542171492228 34.07760424842384L 226.28578293404283 14.181031586721115Q 225.5739906776369 7.800612181719547  221.91856301912165 4.978494424899072Q 218.26313536060638 2.156376668078593  212.55852361843984 2.792776598260815Q 206.84397352829046 3.430285239122796  202.31547830247555 9.107364681034056L 202.31547830247555 9.107364681034056Q 200.31004192399016 11.605108649467855  198.97071514916678 14.571892057511192L 198.97071514916678 14.571892057511192L 201.48305354950287 37.09218858669119Q 201.60833785631576 38.215221908755325  202.73137117837985 38.08993760194245L 202.73137117837985 38.08993760194245L 207.2433811626022 37.586582953331416Q 208.36641448466634 37.46129864651854  208.49280750215897 38.594270316565556Q 208.61809180897183 39.7173036386297  207.49505848690768 39.842587945442574L 207.49505848690768 39.842587945442574L 193.2235907835085 41.43469648157789Q 192.1005574614444 41.55998078839076  191.97527315463154 40.436947466326615Q 191.8488801371389 39.30397579627961  192.971913459203 39.17869148946673ZM 291.59575974646873 3.4298036182760043L 293.158043425671-7.034214238441287Q 293.32490359178615-8.151826731644555  292.2072910985829-8.318686897759726L 292.2072910985829-8.318686897759726L 286.23350396677074-9.210576635224896Q 285.1060010975214-9.378913439978255  285.27286126363657-10.496525933181523L 285.27286126363657-10.496525933181523Q 285.44119806838995-11.624028802430836  286.5687009376393-11.455691997677476L 286.5687009376393-11.455691997677476L 294.78760343190396-10.228605289343776Q 295.90521592510726-10.061745123228604  295.7368791203539-8.934242253979292L 295.7368791203539-8.934242253979292L 288.5988079433562 38.87583555260992Q 288.431947777241 39.99344804581319  289.54956027044426 40.16030821192836L 289.54956027044426 40.16030821192836L 294.7815691988029 40.94145005152948Q 295.8991816920062 41.10831021764465  295.73084488725283 42.23581308689396L 295.73084488725283 42.23581308689396Q 295.5639847211377 43.35342558009722  294.4463722279344 43.18656541398205L 294.4463722279344 43.18656541398205L 286.9791383131692 42.07170324215059Q 285.8516354439199 41.90336643739723  286.0184956100351 40.78575394419397L 286.0184956100351 40.78575394419397L 286.64311375398836 36.60212487671626Q 286.75533829049056 35.850456297216724  286.50292616825476 35.5094458566897Q 286.25051404601896 35.16843541616269  285.568493164965 35.673259660634244L 285.568493164965 35.673259660634244Q 283.3315290713535 37.85687859348243  279.3783772006914 39.48094456735188Q 275.43363906743707 41.116377555905544  271.25000999995945 40.491759411952295L 271.25000999995945 40.491759411952295Q 263.32781878707607 39.30897186276421  259.62271372326535 33.44760713549088Q 255.91760865945457 27.586242408217537  257.2569199042905 18.615671334453282Q 258.59475451048826 9.654990636735072  264.6664937012562 5.556639358563189Q 270.7382328920241 1.4582880803912985  280.2231035201828 2.8743845344129895L 280.2231035201828 2.8743845344129895L 290.31128708715033 4.380555945364094Q 291.4288995803536 4.547416111479265  291.59575974646873 3.4298036182760043L 291.59575974646873 3.4298036182760043ZM 287.58077928923734 30.32173608747668L 290.9268424433699 7.910143967135106Q 291.09370260948504 6.792531473931845  289.9760901162818 6.625671307816674L 289.9760901162818 6.625671307816674L 279.88790654931427 5.11949989686557Q 271.3722927736681 3.8481140293862452  266.03985563179674 7.328863105086757Q 260.70741848992526 10.80961218078729  259.4980514452498 18.909830162499443Q 258.2872077619362 27.019938520257647  261.53886319456507 32.12606591266132Q 264.7806282511479 37.230716666426815  271.02145553620323 38.16247564712303Q 277.2622828212587 39.09423462781926  283.01399225148106 34.836883499442486L 283.01399225148106 34.836883499442486Q 285.42379936453864 33.053171168976334  287.58077928923734 30.32173608747668L 287.58077928923734 30.32173608747668ZM 365.76479149279197 34.98145847457775L 353.6466770110135 54.128962265059414Q 353.501926387027 57.6113532909001  354.15112454662744 60.53112070450882L 354.15112454662744 60.53112070450882Q 355.72079400391067 67.51276361967372  361.0526893665735 70.8872253310604Q 366.3845847292363 74.26168704244712  372.1746949760163 72.51780535777552Q 377.97325513620785 70.7792714729635  382.3584510210527 63.85034247552531Q 386.73829910603797 56.92986339149863  384.97825966275593 50.80999728527601Q 383.218220219474 44.69013117905345  375.94284477216394 40.08567549996641L 375.94284477216394 40.08567549996641L 367.3239330924237 34.63091964320816Q 366.36909287692305 34.02661825907711  365.76479149279197 34.98145847457775L 365.76479149279197 34.98145847457775ZM 375.0539198488596 20.30395887878487L 368.1873448291758 31.153647699163713Q 367.5830434450447 32.10848791466435  368.5378836605454 32.7127892987954L 368.5378836605454 32.7127892987954L 377.1567953402856 38.167545155553654Q 385.26026230192366 43.29608522087827  387.1720960728572 50.3167612305171L 387.1720960728572 50.3167612305171Q 389.1346293242598 57.36952403931329  384.24674025261567 65.09274489743343L 384.24674025261567 65.09274489743343Q 379.3962857799885 72.756816361673  372.76088007830185 74.77046756633194Q 366.1254743766153 76.78411877099093  359.7457897509252 72.74652987701792L 359.7457897509252 72.74652987701792Q 355.782780360927 70.23841174288107  353.7736789738925 66.3633102452922L 353.7736789738925 66.3633102452922Q 351.9825624810685 62.55516086414468  351.6796964123083 59.49954764510112L 351.6796964123083 59.49954764510112Q 351.4851196857802 58.66633704897694  351.0711882876479 58.75940045553526Q 350.65725688951557 58.8524638620935  350.2508241001885 59.49465728136826L 350.2508241001885 59.49465728136826L 347.9887047595917 63.06897065443701Q 347.38440337546064 64.02381086993763  346.42111324654854 63.414161685947036L 346.42111324654854 63.414161685947036Q 345.4662730310479 62.80986030181599  346.07057441517895 61.85502008631536L 346.07057441517895 61.85502008631536L 371.92718673618475 20.9996887416645Q 372.53148812031577 20.04484852616389  371.5766479048152 19.440547142032813L 371.5766479048152 19.440547142032813L 367.1066437101264 16.61156101632193Q 366.1518034946257 16.00725963219088 366.7561048787568 15.052419416690213L 366.7561048787568 15.052419416690213Q 367.36575406274744 14.089129287778093  368.3205942782481 14.693430671909141L 368.3205942782481 14.693430671909141L 374.70027890393817 18.73101956588215Q 375.66356903285026 19.340668749872748  375.0539198488596 20.30395887878487L 375.0539198488596 20.30395887878487ZM 416.23782059713784 106.6605048536486L 421.3185311381535 102.14094952171465Q 422.1628256839399 101.38990576802561  421.41178193025087 100.54561122223916L 421.41178193025087 100.54561122223916L 413.13036142497185 91.23595631914284Q 408.7570270008357 86.31962170739541  404.75649254798816 85.68912659117356Q 400.7493116902407 85.05115984180316  397.79054496341394 87.6831361821647Q 394.8243066034387 90.32175892742615  394.86808724272663 94.17754461333027Q 394.91186788201463 98.03333029923448  398.8266003680574 102.43412222373183L 398.8266003680574 102.43412222373183Q 403.69841515968625 107.91082932162072  412.94276402866075 107.16913262573343L 412.94276402866075 107.16913262573343Q 414.55795238501446 107.04396644220401  416.23782059713784 106.6605048536486L 416.23782059713784 106.6605048536486ZM 428.44727572946977 80.03326306311433L 428.44727572946977 80.03326306311433Q 432.66109643600817 84.77027847929659  432.5442924270403 90.04038823370286Q 432.42084201317266 95.30302635496068  428.4683480775885 98.8189745470093L 428.4683480775885 98.8189745470093L 411.53762736296875 113.87972805018924Q 410.6933328171823 114.63077180387828  411.4443765708713 115.47506634966467L 411.4443765708713 115.47506634966467L 414.96032476292 119.42756028524892Q 415.711368516609 120.27185483103537  414.859602337674 121.0295449896243L 414.859602337674 121.0295449896243Q 414.0153077918876 121.78058874331333  413.2642640381986 120.93629419752688L 413.2642640381986 120.93629419752688L 408.24622833877186 115.29521117036984Q 407.488538180183 114.44344499143489  408.3328327259694 113.69240123774586L 408.3328327259694 113.69240123774586L 411.4933335478071 110.88097196508693Q 412.06117766709707 110.37584519269433  412.0859345145565 109.95230405124065Q 412.11069136201604 109.52876290978699  411.2569626742088 109.47177758171944L 411.2569626742088 109.47177758171944Q 407.98088635545065 109.65569047868982  403.96848665474704 108.37993633239293Q 399.94196891599495 107.10335695784744  397.32993179033315 104.16700513046635L 397.32993179033315 104.16700513046635Q 392.6641555506013 98.9219186601826  392.59760338058203 94.12274468868858Q 392.53022598231405 89.33768875524302  396.25857092344177 86.0211327101915Q 399.98691586456937 82.70457666513994  405.1435681387144 83.67180844892033Q 410.3068668177593 84.6465118658493  414.82642214969326 89.72722240686488L 414.82642214969326 89.72722240686488L 423.1078426549723 99.0368773099612Q 423.8588864086613 99.88117185574765  424.7031809544477 99.13012810205865L 424.7031809544477 99.13012810205865L 426.95961416531054 97.12291382228796Q 430.2321894843765 94.2117884761305  430.1998283038375 89.79710244493933Q 430.1608207183985 85.37494478059963  426.95060715174543 81.76614596984885Q 423.7403935850923 78.15734715909807  420.6937524905135 76.71846632983397Q 417.64711139593476 75.27958550056991  416.0832655066401 75.0110970752398Q 414.5202448455941 74.72849061186125  414.7747935485186 73.64548324446275Q 415.0152242133946 72.56165064881557  416.02929184704817 72.7838371343999L 416.02929184704817 72.7838371343999Q 422.97063809194975 73.87663734870716  428.44727572946977 80.03326306311433ZM 438.8325022766877 155.46215752143468L 438.8325022766877 155.46215752143468Q 439.84581445596524 155.77552380444513  439.599787735532 156.59501807094912Q 439.34025018604166 157.41033412034628  439.01300283201067 157.5829874414255L 439.01300283201067 157.5829874414255Q 438.7142414026986 157.83106325313517  437.89008083021963 157.57619200962003L 437.89008083021963 157.57619200962003Q 435.44462077089645 156.8199347132881  433.8040123120279 155.63904357322087L 433.8040123120279 155.63904357322087Q 430.20923563967426 152.2329048978435  429.92730492569416 151.61281210437247Q 429.6365296886322 150.99738561687656  429.6038655468064 150.9354739553031L 429.6038655468064 150.9354739553031Q 427.1353896859711 146.25672124496748  428.73330312933945 141.9991312426889Q 430.33121657270783 137.7415412404103  436.00940039130046 134.74577280438714L 436.00940039130046 134.74577280438714L 455.3877504637872 124.52189641291241Q 456.38718157204414 123.99460383772453  455.8552226908812 122.98632820638562L 455.8552226908812 122.98632820638562L 453.39141313602096 118.31642001913184Q 452.85945425485795 117.30814438779299  453.8677298861968 116.77618550663001L 453.8677298861968 116.77618550663001Q 454.8671609944538 116.24889293144213  455.3991198756168 117.25716856278098L 455.3991198756168 117.25716856278098L 457.86292943047704 121.92707675003476Q 458.39488831164 122.93535238137366  459.39431941989693 122.40805980618578L 459.39431941989693 122.40805980618578L 470.75068705708225 116.41652293413941Q 471.7589626884211 115.88456405297643  472.28625526360895 116.88399516123337L 472.28625526360895 116.88399516123337Q 472.81354783879686 117.88342626949031  471.805272207458 118.4153851506533L 471.805272207458 118.4153851506533L 460.4489045702727 124.40692202269966Q 459.44947346201576 124.93421459788755  459.98143234317877 125.94249022922645L 459.98143234317877 125.94249022922645L 465.97296921522513 137.2988578664117Q 466.500261790413 138.2982889746687  465.500830682156 138.8255815498566L 465.500830682156 138.8255815498566Q 464.49255505081715 139.35754043101957  463.9652624756293 138.35810932276257L 463.9652624756293 138.35810932276257L 457.9737256035829 127.00174168557731Q 457.4417667224199 125.99346605423841  456.44233561416297 126.5207586294263L 456.44233561416297 126.5207586294263L 437.06398554167623 136.74463502090103Q 432.26140950819365 139.2784391653879  430.94956718356127 142.706714200344Q 429.637724858929 146.13498923530017  431.63023751030266 149.91160059127998Q 433.61808385570123 153.67936742417788  438.8325022766877 155.46215752143468ZM 442.95866979391246 172.1028571417499L 442.95866979391246 172.1028571417499L 444.2860973762434 177.22360279191327Q 444.5696499599927 178.31744827105967  445.6634954391391 178.03389568731035L 445.6634954391391 178.03389568731035L 490.2691588719422 166.47097262609867Q 491.3630043510886 166.18742004234934  491.07945176733926 165.09357456320294L 491.07945176733926 165.09357456320294L 489.75202418500834 159.97282891303956Q 489.468471601259 158.8789834338931  490.5623170804055 158.59543085014377Q 491.6658426080399 158.30936895149398  491.9493951917892 159.40321443064045L 491.9493951917892 159.40321443064045L 493.8439279416188 166.71165103909664Q 494.1299898402686 167.8151765667311  493.0264643126342 168.1012384653809L 493.0264643126342 168.1012384653809L 474.31493058528855 172.95174416792477Q 473.57924690019894 173.14245210035796  473.36412489257145 173.50813300201168Q 473.14900288494385 173.87381390366545  473.8803646882513 174.30405791892053L 473.8803646882513 174.30405791892053Q 482.0759387670772 178.5018389420893  483.8776268655907 185.4521137564887Q 485.67931496410415 192.40238857088815  482.8898995985337 197.14405092899835Q 480.09080418447513 201.888222602009  473.0050086912434 203.72504110912854L 473.0050086912434 203.72504110912854L 453.62555161822434 208.74868953980257Q 452.5317061390779 209.0322421235519  452.81525872282725 210.1260876026983L 452.81525872282725 210.1260876026983L 454.14268630515824 215.24683325286162Q 454.4262388889075 216.34067873200803  453.32271336127314 216.6267406306578Q 452.2288678821267 216.91029321440712  451.9453152983773 215.8164477352607L 451.9453152983773 215.8164477352607L 448.3419391013504 201.91589810646187Q 448.0583865176011 200.82205262731546  449.15223199674756 200.53850004356613Q 450.255757524382 200.25243814491637  450.5393101081313 201.34628362406278L 450.5393101081313 201.34628362406278L 451.6785390729295 205.74102563762455Q 451.9620916566788 206.83487111677096  453.0559371358253 206.55131853302163L 453.0559371358253 206.55131853302163L 472.4353942088443 201.5276701023476Q 478.649985338154 199.91668993626735  480.9241883558641 195.8974237552041Q 483.19588205867353 191.86847752565285  481.75553530582295 186.3121296935285Q 480.31518855297236 180.75578186140416  474.049855771305 177.0700247973855L 474.049855771305 177.0700247973855Q 471.3126248498165 175.51719934600746  468.168099795395 174.54515912970197L 468.168099795395 174.54515912970197L 446.23310992153824 180.23126669409123Q 445.13926444239183 180.51481927784056  445.42281702614116 181.60866475698697L 445.42281702614116 181.60866475698697L 446.55953667603893 185.99372672206073Q 446.84308925978826 187.08757220120714  445.73956373215384 187.3736340998569Q 444.6457182530074 187.65718668360623  444.36216566925805 186.56334120445982L 444.36216566925805 186.56334120445982L 440.7612987871316 172.67247162414898Q 440.47774620338225 171.57862614500252  441.5715916825287 171.2950735612532Q 442.67511721016314 171.00901166260343  442.95866979391246 172.1028571417499Z"/></svg>